PathFileType	4	(X/Y/Z)	/Users/itak/Documents/Research/Walk-IL/dataset/trc/00244_00009.trc
DataRate	CameraRate	NumFrames	NumMarkers	Units	OrigDataRate	OrigDataStartFrame	OrigNumFrames
100.000000	100.000000	4	53	mm	100.000000	429	858
Frame#	Time	RPSI			LPSI			L3			STRN			T10			C7			CLAV			RBAK			LBAK			LSHO			LUPA			LAEL			LAOL			LWTS			LWPS			LFRA			LIFD			LHPS			LHTS			RSHO			RUPA			RAEL			RAOL			RWTS			RWPS			RFRA			RIFD			RHTS			RHPS			RBHD			LFHD			RFHD			LBHD			LHIP			RHIP			RASI			LASI			LKNE			LTHI			LANK			LTIP			LTOE			LMT1			LMT5			LHEE			RKNE			RTHI			RANK			RTIP			RTOE			RMT1			RMT5			RHEE			
		X1	Y1	Z1	X2	Y2	Z2	X3	Y3	Z3	X4	Y4	Z4	X5	Y5	Z5	X6	Y6	Z6	X7	Y7	Z7	X8	Y8	Z8	X9	Y9	Z9	X10	Y10	Z10	X11	Y11	Z11	X12	Y12	Z12	X13	Y13	Z13	X14	Y14	Z14	X15	Y15	Z15	X16	Y16	Z16	X17	Y17	Z17	X18	Y18	Z18	X19	Y19	Z19	X20	Y20	Z20	X21	Y21	Z21	X22	Y22	Z22	X23	Y23	Z23	X24	Y24	Z24	X25	Y25	Z25	X26	Y26	Z26	X27	Y27	Z27	X28	Y28	Z28	X29	Y29	Z29	X30	Y30	Z30	X31	Y31	Z31	X32	Y32	Z32	X33	Y33	Z33	X34	Y34	Z34	X35	Y35	Z35	X36	Y36	Z36	X37	Y37	Z37	X38	Y38	Z38	X39	Y39	Z39	X40	Y40	Z40	X41	Y41	Z41	X42	Y42	Z42	X43	Y43	Z43	X44	Y44	Z44	X45	Y45	Z45	X46	Y46	Z46	X47	Y47	Z47	X48	Y48	Z48	X49	Y49	Z49	X50	Y50	Z50	X51	Y51	Z51	X52	Y52	Z52	X53	Y53	Z53	

430	4.29	-396.9288940429688	1017.99560546875	-109.8410339355469	-483.499267578125	1031.544921875	-191.572265625	-455.62744140625	1112.212524414062	-158.1009063720703	-278.0965881347656	1286.190063476562	-350.0074768066406	-448.7419128417969	1238.903930664062	-155.8735046386719	-396.5022888183594	1497.179443359375	-212.1757049560547	-288.8080139160156	1405.114868164062	-332.7556762695312	-398.1990356445312	1361.407470703125	-103.8510818481445	-495.0162658691406	1461.422119140625	-272.1977233886719	-472.9750061035156	1458.751342773438	-375.0166320800781	-549.98095703125	1345.105102539062	-414.9069519042969	-553.3070068359375	1139.681030273438	-472.72021484375	-575.422607421875	1110.754028320312	-393.7457580566406	-406.5447692871094	936.2176513671875	-519.9386596679688	-472.0868225097656	911.1887817382812	-567.5978393554688	-527.428466796875	1039.864501953125	-513.5587768554688	-359.5701599121094	752.3576049804688	-565.3878173828125	-435.4828186035156	831.9230346679688	-590.7366943359375	-371.1716613769531	850.9658203125	-576.0092163085938	-232.3986358642578	1451.267456054688	-142.8973236083984	-199.9557495117188	1386.113525390625	-81.53750610351562	-206.3307037353516	1108.292846679688	-25.34515571594238	-295.4552001953125	1106.74462890625	-61.43610382080078	-139.6290283203125	893.7244262695312	-148.9273681640625	-134.6680145263672	879.0921630859375	-66.01610565185547	-180.83056640625	1038.747802734375	-32.73464202880859	-130.0075988769531	702.60400390625	-165.6039123535156	-97.72883605957031	774.9379272460938	-165.7642059326172	-102.0879592895508	773.4891357421875	-93.17668151855469	-327.1625061035156	1640.436401367188	-195.1651611328125	-272.1294250488281	1704.416259765625	-407.2358093261719	-195.2565460205078	1698.0234375	-343.53515625	-400.8507385253906	1658.48193359375	-314.9139404296875	-527.0933837890625	975.8321533203125	-360.9751281738281	-253.525634765625	975.3623657226562	-116.3659820556641	-217.0725708007812	1019.591613769531	-211.8385467529297	-423.1127624511719	1010.930603027344	-403.8320007324219	-511.1282653808594	495.3398742675781	-298.3876037597656	-518.8590698242188	637.2039184570312	-335.3739624023438	-590.6128540039062	40.19807815551758	-147.4064025878906	-565.04052734375	281.6278686523438	-224.7610168457031	-420.1976623535156	41.66284561157227	-290.1954650878906	-425.9461669921875	41.08716583251953	-210.1214752197266	-532.8216552734375	34.39604949951172	-261.7803649902344	-584.9562377929688	55.86832809448242	-68.89011383056641	-184.2398223876953	509.3695068359375	-279.2491149902344	-187.6424255371094	766.7531127929688	-182.1192474365234	-233.9463958740234	27.75792121887207	-394.6512145996094	-180.1042633056641	396.6399841308594	-323.04541015625	-55.48470687866211	92.46584320068359	-483.2472534179688	-117.6870040893555	79.46509552001953	-513.2886352539062	-123.5052719116211	43.92484664916992	-400.8536071777344	-309.8684387207031	27.72263717651367	-432.653564453125	
431	4.3	-393.2554016113281	1016.141723632812	-114.9924545288086	-479.4007263183594	1029.900268554688	-197.17626953125	-451.8064575195312	1110.448364257812	-163.3425598144531	-273.0415649414062	1284.896484375	-353.6373901367188	-445.1324768066406	1237.179809570312	-160.8461608886719	-392.7676086425781	1495.607055664062	-216.4927368164062	-284.0343627929688	1403.757934570312	-336.3014221191406	-395.1336669921875	1359.59619140625	-108.3571090698242	-490.7521057128906	1459.840454101562	-277.3480834960938	-467.9019165039062	1457.123046875	-380.0240783691406	-544.59814453125	1343.301147460938	-420.2505798339844	-547.8206176757812	1137.579223632812	-476.9760437011719	-570.7095947265625	1109.252685546875	-397.9874877929688	-402.3451538085938	932.6487426757812	-521.7286376953125	-467.6904602050781	907.7921752929688	-569.6698608398438	-522.4119873046875	1037.306396484375	-516.94140625	-356.5040893554688	748.0723266601562	-565.2777099609375	-431.5925903320312	828.0638427734375	-591.8920288085938	-367.21240234375	846.64208984375	-576.6810302734375	-229.2169799804688	1449.767822265625	-145.8849487304688	-197.1315307617188	1384.654663085938	-84.31806182861328	-203.2585296630859	1106.842895507812	-28.41384696960449	-291.3109130859375	1104.262573242188	-66.30949401855469	-134.9895324707031	892.2330322265625	-151.0877990722656	-130.7873382568359	877.7117309570312	-68.12469482421875	-177.4831085205078	1037.330078125	-35.54386901855469	-124.8126907348633	701.1024780273438	-167.3941040039062	-92.69586944580078	773.5048217773438	-167.3583374023438	-97.71988677978516	772.1358642578125	-94.81552124023438	-323.4297790527344	1639.052001953125	-198.8784790039062	-267.2667541503906	1703.138549804688	-410.6211853027344	-190.7685699462891	1696.801391601562	-346.5266418457031	-396.439208984375	1657.028442382812	-318.9214477539062	-522.1892700195312	974.6434936523438	-366.9393615722656	-249.7998962402344	973.4755859375	-121.0369567871094	-212.8569641113281	1017.958801269531	-216.1018218994141	-418.2146911621094	1009.747863769531	-408.9080505371094	-507.2646789550781	494.4215393066406	-302.8275451660156	-514.497802734375	636.1402587890625	-340.3490295410156	-590.3924560546875	40.73118209838867	-147.4091033935547	-562.833984375	281.5026245117188	-227.1563873291016	-420.0982055664062	41.60274505615234	-290.2195739746094	-425.80322265625	41.10321426391602	-210.2293243408203	-532.790771484375	34.42244338989258	-261.7604064941406	-584.6488037109375	57.08023834228516	-68.93251037597656	-181.8016204833984	507.5085754394531	-284.0634155273438	-184.3420562744141	764.554443359375	-187.2820739746094	-229.0648803710938	26.92595672607422	-399.9267883300781	-177.1090698242188	394.870361328125	-327.873779296875	-49.26361846923828	90.04015350341797	-487.4493103027344	-111.2993698120117	77.00214385986328	-517.9085083007812	-118.2414016723633	42.7180290222168	-405.2571105957031	-304.4260559082031	26.66798210144043	-438.8125	
432	4.31	-389.3460388183594	1014.371215820312	-120.1979751586914	-475.1300048828125	1028.28466796875	-202.7648773193359	-447.7960815429688	1108.677734375	-168.6348724365234	-267.9183044433594	1283.697021484375	-357.2854919433594	-441.3560180664062	1235.458129882812	-165.8044281005859	-388.9643249511719	1494.070678710938	-220.7283782958984	-279.2009582519531	1402.482055664062	-339.8128051757812	-391.94580078125	1357.771728515625	-112.8409576416016	-486.4076538085938	1458.30615234375	-282.3868713378906	-462.7897338867188	1455.5751953125	-384.9256591796875	-539.1646728515625	1341.5576171875	-425.4603881835938	-542.2959594726562	1135.539794921875	-481.0979919433594	-565.9220581054688	1107.83154296875	-402.0786743164062	-398.3353881835938	929.0335693359375	-523.4267578125	-463.5614013671875	904.3972778320312	-571.6143188476562	-517.466552734375	1034.797119140625	-520.1826171875	-353.8619079589844	743.7158203125	-565.0388793945312	-428.0798034667969	824.1580200195312	-592.9007568359375	-363.6116333007812	842.2364501953125	-577.2666625976562	-225.9363403320312	1448.287719726562	-148.8417663574219	-194.2133178710938	1383.197509765625	-87.08456420898438	-200.0718231201172	1105.391357421875	-31.48335647583008	-287.0399475097656	1101.788818359375	-71.21495819091797	-130.2674255371094	890.7343139648438	-153.2113800048828	-126.8209991455078	876.3275756835938	-70.19371795654297	-174.0335845947266	1035.921997070312	-38.32431030273438	-119.5410003662109	699.5966796875	-169.1293487548828	-87.58265686035156	772.0693359375	-168.9031219482422	-93.28388214111328	770.775390625	-96.40442657470703	-319.6075134277344	1637.741577148438	-202.5545806884766	-262.3117980957031	1701.937255859375	-413.9293212890625	-186.1983947753906	1695.650512695312	-349.4397277832031	-391.9224853515625	1655.662109375	-322.848388671875	-517.2022705078125	973.4608154296875	-372.9035949707031	-245.7844848632812	971.7386474609375	-125.8807525634766	-208.4901275634766	1016.382507324219	-220.5732727050781	-413.1392822265625	1008.720092773438	-414.1569519042969	-503.1995239257812	493.4535827636719	-307.5115051269531	-510.0052490234375	635.0556030273438	-345.4774475097656	-590.176513671875	41.38755798339844	-147.4775085449219	-560.5136108398438	281.3942565917969	-229.7287139892578	-420.0187683105469	41.5387077331543	-290.2591247558594	-425.6580200195312	41.14805603027344	-210.3520202636719	-532.759033203125	34.44177627563477	-261.7566223144531	-584.391845703125	58.44077682495117	-69.04375457763672	-178.9588623046875	505.7734985351562	-288.9306640625	-180.8103637695312	762.4337158203125	-192.6074981689453	-224.9579925537109	26.33753395080566	-404.0393371582031	-173.8903198242188	393.0744018554688	-332.6630249023438	-44.10282135009766	86.76444244384766	-491.6897888183594	-106.1763458251953	73.78977203369141	-522.1697387695312	-113.755859375	41.38689422607422	-409.164306640625	-299.9405212402344	25.88137054443359	-443.4758911132812	
433	4.32	-385.22021484375	1012.744750976562	-125.4264984130859	-470.7044982910156	1026.742553710938	-208.3515014648438	-443.602783203125	1106.937133789062	-173.9842224121094	-262.7358093261719	1282.625244140625	-360.9684143066406	-437.4092407226562	1233.776000976562	-170.7559051513672	-385.0850830078125	1492.608154296875	-224.8899078369141	-274.3072814941406	1401.32373046875	-343.3067321777344	-388.6380310058594	1355.975219726562	-117.3106002807617	-481.9839477539062	1456.857421875	-287.3126220703125	-457.6524047851562	1454.150634765625	-389.7264099121094	-533.6981811523438	1339.9091796875	-430.518798828125	-536.7401123046875	1133.594482421875	-485.0704345703125	-561.052978515625	1106.518920898438	-405.9999084472656	-394.5144958496094	925.4216918945312	-525.0372924804688	-459.7181701660156	901.0501708984375	-573.4270629882812	-512.60205078125	1032.374145507812	-523.270263671875	-351.6500549316406	739.3416748046875	-564.7033081054688	-424.9538879394531	820.2572631835938	-593.7672729492188	-360.3814086914062	837.8018188476562	-577.7858276367188	-222.5522918701172	1446.854614257812	-151.7850494384766	-191.1958770751953	1381.76318359375	-89.8531494140625	-196.7722778320312	1103.9560546875	-34.56195831298828	-282.7634887695312	1099.447998046875	-75.98887634277344	-125.4832916259766	889.2376708984375	-155.3043060302734	-122.787483215332	874.9572143554688	-72.22550201416016	-170.4949188232422	1034.549072265625	-41.07846069335938	-114.2102737426758	698.0975952148438	-170.8084411621094	-82.40833282470703	770.640869140625	-170.3982543945312	-88.7994384765625	769.4246215820312	-97.94194030761719	-315.6929626464844	1636.54296875	-206.1925201416016	-257.2681579589844	1700.851806640625	-417.1607666015625	-181.5419006347656	1694.611328125	-352.2747192382812	-387.297607421875	1654.42431640625	-326.7036743164062	-512.1326293945312	972.2891845703125	-378.8673706054688	-241.4959869384766	970.2313842773438	-130.8521270751953	-203.9875793457031	1014.909790039062	-225.2196197509766	-407.8018188476562	1007.892761230469	-419.6064758300781	-498.9080200195312	492.4375	-312.4328002929688	-505.3571166992188	633.9548950195312	-350.7590942382812	-589.971435546875	42.19407272338867	-147.6246490478516	-558.0838012695312	281.322998046875	-232.4847717285156	-419.9633483886719	41.47326278686523	-290.3167419433594	-425.5198364257812	41.23075103759766	-210.4935760498047	-532.7269897460938	34.45462036132812	-261.7727966308594	-584.1986694335938	59.99117279052734	-69.24315643310547	-175.6893615722656	504.2511901855469	-293.9017028808594	-177.0467529296875	760.4448852539062	-198.0131225585938	-221.6986999511719	26.07253265380859	-407.1328125	-170.4435882568359	391.3464050292969	-337.4893188476562	-39.95170974731445	82.67002105712891	-495.9098205566406	-102.2484970092773	69.88243865966797	-526.0751953125	-110.1301040649414	40.06630325317383	-412.56298828125	-296.4866027832031	25.42828178405762	-446.8483276367188	
